# xmcd
#
# Track frame offsets: 
#        150
#        17000
#        38237
#        57070
#        73420
#        94250
#        113195
#        137192
#        156655
#        178562
#        202665
#        222395
#        238112
#        250820
#
# Disc length: 3635 seconds
#
# Revision: 1
# Processed by: cddbd v1.5.2PL0 Copyright (c) Steve Scherf et al.
# Submitted via: ExactAudioCopyFreeDBPlugin 1.0
#
DISCID=cd0e310e
DTITLE=Keith Urban - Be Here
DYEAR=2004
DGENRE=Country
TTITLE0=Days Go By
TTITLE1=Better Life
TTITLE2=Making Memories Of Us
TTITLE3=God's Been Good To Me
TTITLE4=The Hard Way
TTITLE5=You're My Better Half
TTITLE6=I Could Fly
TTITLE7=Tonight I Wanna Cry
TTITLE8=She's Gotta Be
TTITLE9=Nobody Drinks Alone
TTITLE10=Country Comfort
TTITLE11=Live To Love Another Day
TTITLE12=These Are The Days
TTITLE13=You (Or Somebody Like You)
EXTD=
EXTT0=
EXTT1=
EXTT2=
EXTT3=
EXTT4=
EXTT5=
EXTT6=
EXTT7=
EXTT8=
EXTT9=
EXTT10=
EXTT11=
EXTT12=
EXTT13=
PLAYORDER=
